<?xml version="1.0" encoding="UTF-8"?>
<!DOCTYPE svg PUBLIC "-//W3C//DTD SVG 1.1//EN" "http://www.w3.org/Graphics/SVG/1.1/DTD/svg11.dtd">
<svg xmlns="http://www.w3.org/2000/svg" version="1.1" width="431px" height="92px" style="shape-rendering:geometricPrecision; text-rendering:geometricPrecision; image-rendering:optimizeQuality; fill-rule:evenodd; clip-rule:evenodd" xmlns:xlink="http://www.w3.org/1999/xlink">
<g><path style="opacity:0.004" fill="#000000" d="M 65.5,-0.5 C 65.8333,-0.5 66.1667,-0.5 66.5,-0.5C 66.3147,0.170143 65.9813,0.170143 65.5,-0.5 Z"/></g>
<g><path style="opacity:0.004" fill="#000000" d="M 353.5,1.5 C 354.833,2.16667 354.833,2.16667 353.5,1.5 Z"/></g>
<g><path style="opacity:0.004" fill="#000000" d="M 383.5,1.5 C 384.833,2.16667 384.833,2.16667 383.5,1.5 Z"/></g>
<g><path style="opacity:0.004" fill="#000000" d="M 188.5,4.5 C 189.833,5.16667 189.833,5.16667 188.5,4.5 Z"/></g>
<g><path style="opacity:0.004" fill="#000000" d="M 263.5,6.5 C 264.833,7.16667 264.833,7.16667 263.5,6.5 Z"/></g>
<g><path style="opacity:0.004" fill="#000000" d="M 46.5,7.5 C 47.8333,8.16667 47.8333,8.16667 46.5,7.5 Z"/></g>
<g><path style="opacity:0.816" fill="#0e5739" d="M 79.5,5.5 C 80.9526,6.82487 80.6192,7.6582 78.5,8C 79.4158,8.27842 80.0825,8.77842 80.5,9.5C 72.9916,9.96219 65.6583,9.46219 58.5,8C 65.3914,6.56331 72.3914,5.72998 79.5,5.5 Z"/></g>
<g><path style="opacity:0.114" fill="#115538" d="M 352.5,6.5 C 357.179,6.33418 361.845,6.50085 366.5,7C 367.308,7.30762 367.975,7.80762 368.5,8.5C 363.208,9.49485 357.875,9.82818 352.5,9.5C 352.5,8.5 352.5,7.5 352.5,6.5 Z"/></g>
<g><path style="opacity:0.004" fill="#000000" d="M 419.5,11.5 C 420.833,12.1667 420.833,12.1667 419.5,11.5 Z"/></g>
<g><path style="opacity:1" fill="#0e975b" d="M 352.5,6.5 C 352.5,7.5 352.5,8.5 352.5,9.5C 342.459,9.24426 332.459,9.74426 322.5,11C 329.492,11.4996 336.492,11.6663 343.5,11.5C 347.378,11.0237 350.712,12.0237 353.5,14.5C 342.012,15.4949 330.345,15.8283 318.5,15.5C 319.833,12.1667 319.833,8.83333 318.5,5.5C 329.802,6.41002 341.136,6.74336 352.5,6.5 Z"/></g>
<g><path style="opacity:0.492" fill="#16965c" d="M 79.5,5.5 C 88.4811,6.8317 97.4811,6.8317 106.5,5.5C 109.971,6.79403 110.304,8.62736 107.5,11C 109.394,12.0793 109.727,13.4126 108.5,15C 95.1452,15.7373 81.8119,15.5707 68.5,14.5C 70.2202,13.6923 71.8869,12.6923 73.5,11.5C 83.8387,11.6665 94.172,11.4998 104.5,11C 96.6112,9.56476 88.6112,9.06476 80.5,9.5C 80.0825,8.77842 79.4158,8.27842 78.5,8C 80.6192,7.6582 80.9526,6.82487 79.5,5.5 Z"/></g>
<g><path style="opacity:0.004" fill="#000000" d="M 409.5,14.5 C 410.833,15.1667 410.833,15.1667 409.5,14.5 Z"/></g>
<g><path style="opacity:0.916" fill="#fdfdfd" d="M 161.5,37.5 C 161.5,37.8333 161.5,38.1667 161.5,38.5C 161.5,46.5 161.5,54.5 161.5,62.5C 158.167,62.5 154.833,62.5 151.5,62.5C 151.5,56.8333 151.5,51.1667 151.5,45.5C 149.833,45.5 148.167,45.5 146.5,45.5C 146.5,51.1667 146.5,56.8333 146.5,62.5C 143.167,62.5 139.833,62.5 136.5,62.5C 136.5,47.1667 136.5,31.8333 136.5,16.5C 144.833,16.5 153.167,16.5 161.5,16.5C 161.5,23.5 161.5,30.5 161.5,37.5 Z M 146.5,27.5 C 148.167,27.5 149.833,27.5 151.5,27.5C 151.5,29.8333 151.5,32.1667 151.5,34.5C 149.833,34.5 148.167,34.5 146.5,34.5C 146.5,32.1667 146.5,29.8333 146.5,27.5 Z"/></g>
<g><path style="opacity:0.924" fill="#fbfcfc" d="M 161.5,38.5 C 161.5,38.1667 161.5,37.8333 161.5,37.5C 162.491,30.6866 162.825,23.6866 162.5,16.5C 170.833,16.5 179.167,16.5 187.5,16.5C 187.5,26.1667 187.5,35.8333 187.5,45.5C 185.801,45.3398 184.134,45.5065 182.5,46C 184.549,51.0251 186.216,56.1917 187.5,61.5C 184.167,62.8333 180.833,62.8333 177.5,61.5C 176.001,56.1723 174.501,50.839 173,45.5C 172.501,51.1569 172.334,56.8236 172.5,62.5C 169.167,62.5 165.833,62.5 162.5,62.5C 162.826,54.3159 162.492,46.3159 161.5,38.5 Z M 172.5,27.5 C 174.167,27.5 175.833,27.5 177.5,27.5C 177.5,29.8333 177.5,32.1667 177.5,34.5C 175.833,34.5 174.167,34.5 172.5,34.5C 172.5,32.1667 172.5,29.8333 172.5,27.5 Z"/></g>
<g><path style="opacity:0.139" fill="#b4f4d8" d="M 188.5,16.5 C 191.833,16.5 195.167,16.5 198.5,16.5C 200.167,28.5 201.833,28.5 203.5,16.5C 206.833,16.5 210.167,16.5 213.5,16.5C 213.5,31.8333 213.5,47.1667 213.5,62.5C 210.167,62.5 206.833,62.5 203.5,62.5C 203.5,56.8333 203.5,51.1667 203.5,45.5C 201.833,45.5 200.167,45.5 198.5,45.5C 198.5,51.1667 198.5,56.8333 198.5,62.5C 195.167,62.5 191.833,62.5 188.5,62.5C 188.5,47.1667 188.5,31.8333 188.5,16.5 Z"/></g>
<g><path style="opacity:0.957" fill="#fdfdfd" d="M 240.5,16.5 C 243.85,16.335 247.183,16.5017 250.5,17C 252.387,20.6586 253.887,24.4919 255,28.5C 255.499,24.5138 255.666,20.5138 255.5,16.5C 258.5,16.5 261.5,16.5 264.5,16.5C 264.5,31.8333 264.5,47.1667 264.5,62.5C 261.5,62.5 258.5,62.5 255.5,62.5C 255.01,55.1878 253.176,48.1878 250,41.5C 249.5,48.4921 249.334,55.4921 249.5,62.5C 246.5,62.5 243.5,62.5 240.5,62.5C 240.5,47.1667 240.5,31.8333 240.5,16.5 Z"/></g>
<g><path style="opacity:0.936" fill="#fdfdfc" d="M 266.5,16.5 C 274.5,16.5 282.5,16.5 290.5,16.5C 290.5,20.1667 290.5,23.8333 290.5,27.5C 288.167,27.5 285.833,27.5 283.5,27.5C 283.5,35.8333 283.5,44.1667 283.5,52.5C 285.833,52.5 288.167,52.5 290.5,52.5C 290.5,55.8333 290.5,59.1667 290.5,62.5C 282.5,62.5 274.5,62.5 266.5,62.5C 266.5,59.1667 266.5,55.8333 266.5,52.5C 268.833,52.5 271.167,52.5 273.5,52.5C 273.5,44.1667 273.5,35.8333 273.5,27.5C 271.167,27.5 268.833,27.5 266.5,27.5C 266.5,23.8333 266.5,20.1667 266.5,16.5 Z"/></g>
<g><path style="opacity:0.971" fill="#fcfdfd" d="M 111.5,16.5 C 114.5,16.5 117.5,16.5 120.5,16.5C 120.5,22.5 120.5,28.5 120.5,34.5C 122.5,34.5 124.5,34.5 126.5,34.5C 126.5,28.5 126.5,22.5 126.5,16.5C 129.5,16.5 132.5,16.5 135.5,16.5C 135.5,31.8333 135.5,47.1667 135.5,62.5C 132.5,62.5 129.5,62.5 126.5,62.5C 126.5,56.8333 126.5,51.1667 126.5,45.5C 124.5,45.5 122.5,45.5 120.5,45.5C 120.5,51.1667 120.5,56.8333 120.5,62.5C 117.5,62.5 114.5,62.5 111.5,62.5C 111.5,47.1667 111.5,31.8333 111.5,16.5 Z"/></g>
<g><path style="opacity:0.004" fill="#000000" d="M 404.5,17.5 C 405.833,18.1667 405.833,18.1667 404.5,17.5 Z"/></g>
<g><path style="opacity:0.993" fill="#fafafa" d="M 292.5,16.5 C 300.5,16.5 308.5,16.5 316.5,16.5C 316.5,30.8333 316.5,45.1667 316.5,59.5C 315.167,59.5 313.833,59.5 312.5,59.5C 312.5,61.1667 312.5,62.8333 312.5,64.5C 309.482,64.6646 306.482,64.498 303.5,64C 303.002,62.8419 302.169,62.0085 301,61.5C 298.476,62.1043 295.976,62.771 293.5,63.5C 292.501,47.8475 292.167,32.1808 292.5,16.5 Z M 301.5,27.5 C 303.167,27.5 304.833,27.5 306.5,27.5C 306.666,34.175 306.5,40.8417 306,47.5C 304.667,46.1667 303.333,46.1667 302,47.5C 301.5,40.8417 301.334,34.175 301.5,27.5 Z"/></g>
<g><path style="opacity:1" fill="#18764c" d="M 368.5,16.5 C 368.5,18.5 367.5,19.5 365.5,19.5C 351.025,20.1172 336.692,20.7839 322.5,21.5C 322.565,21.9382 322.399,22.2716 322,22.5C 321.583,21.244 320.75,20.5774 319.5,20.5C 318.566,19.4324 318.232,18.099 318.5,16.5C 335.167,16.5 351.833,16.5 368.5,16.5 Z"/></g>
<g><path style="opacity:1" fill="#0f9c5b" d="M 319.5,17.5 C 330.187,17.168 340.854,17.5013 351.5,18.5C 346.167,18.8333 340.833,19.1667 335.5,19.5C 329.789,19.4949 324.456,18.8282 319.5,17.5 Z"/></g>
<g><path style="opacity:0.227" fill="#022514" d="M 369.5,10.5 C 374.493,10.9157 379.493,11.2491 384.5,11.5C 383.398,13.0919 384.065,13.9252 386.5,14C 381.042,15.2148 380.375,17.5482 384.5,21C 383.262,20.9227 382.262,21.0894 381.5,21.5C 384.5,22.3333 387.5,23.1667 390.5,24C 389.377,25.0437 388.044,25.7104 386.5,26C 389.417,27.1045 392.417,28.1045 395.5,29C 393.527,29.4955 391.527,29.6621 389.5,29.5C 388.003,28.6942 386.336,28.0276 384.5,27.5C 383.614,26.675 383.281,25.675 383.5,24.5C 384.552,24.6495 385.552,24.4828 386.5,24C 383.044,23.8198 379.711,23.1532 376.5,22C 377.357,21.3109 378.023,20.4776 378.5,19.5C 376.604,18.5344 374.604,18.2011 372.5,18.5C 372.38,15.7952 373.38,15.1285 375.5,16.5C 376.696,16.1543 376.696,15.6543 375.5,15C 377.5,14.6667 379.5,14.3333 381.5,14C 377.814,13.4412 374.147,12.7745 370.5,12C 369.944,11.6174 369.611,11.1174 369.5,10.5 Z"/></g>
<g><path style="opacity:0.704" fill="#053c21" d="M 61.5,10.5 C 65.7016,10.1832 69.7016,10.5166 73.5,11.5C 71.8869,12.6923 70.2202,13.6923 68.5,14.5C 65.6697,14.9628 63.003,15.6295 60.5,16.5C 59.158,17.793 57.4913,18.6264 55.5,19C 57.4211,19.3603 59.0878,20.1936 60.5,21.5C 61.1818,20.7573 61.8485,20.0906 62.5,19.5C 62.8333,20.1667 63.1667,20.8333 63.5,21.5C 61.7768,22.807 59.9435,22.807 58,21.5C 54.8118,22.7671 51.6451,23.7671 48.5,24.5C 46.1432,24.6633 43.8098,24.4966 41.5,24C 45.0458,22.8263 48.7125,22.1596 52.5,22C 51.2842,20.2602 49.6175,19.2602 47.5,19C 48.9494,17.883 50.6161,17.2163 52.5,17C 50.3651,15.6189 48.0318,14.6189 45.5,14C 50.4164,12.8394 55.4164,12.1728 60.5,12C 61.056,11.6174 61.3893,11.1174 61.5,10.5 Z"/></g>
<g><path style="opacity:0.004" fill="#000000" d="M 7.5,24.5 C 8.83333,25.1667 8.83333,25.1667 7.5,24.5 Z"/></g>
<g><path style="opacity:0.295" fill="#095c33" d="M 63.5,21.5 C 69.8333,21.5 76.1667,21.5 82.5,21.5C 76.4265,23.148 70.0932,23.9813 63.5,24C 64.5266,24.5133 65.5266,25.0133 66.5,25.5C 77.8577,26.8364 89.191,27.503 100.5,27.5C 88.6737,28.3307 76.6737,28.8307 64.5,29C 75.3412,29.1696 86.0079,29.6696 96.5,30.5C 91.4889,30.3341 86.4889,30.5007 81.5,31C 83.8098,31.4966 86.1432,31.6633 88.5,31.5C 77.2097,33.3163 65.543,34.1497 53.5,34C 56.687,34.0006 59.5203,34.8339 62,36.5C 62.3826,35.944 62.8826,35.6107 63.5,35.5C 70.33,36.4261 77.33,37.0928 84.5,37.5C 76.0161,38.493 67.3494,38.8264 58.5,38.5C 58.4226,37.2502 57.756,36.4169 56.5,36C 43.7553,36.0631 43.422,34.7298 55.5,32C 54.8333,31.3333 54.1667,30.6667 53.5,30C 51.2922,29.8091 49.2922,29.3091 47.5,28.5C 48.2341,27.2921 48.5674,25.9587 48.5,24.5C 51.6451,23.7671 54.8118,22.7671 58,21.5C 59.9435,22.807 61.7768,22.807 63.5,21.5 Z"/></g>
<g><path style="opacity:0.004" fill="#000000" d="M 408.5,24.5 C 409.833,25.1667 409.833,25.1667 408.5,24.5 Z"/></g>
<g><path style="opacity:0.004" fill="#000000" d="M 4.5,26.5 C 5.83333,27.1667 5.83333,27.1667 4.5,26.5 Z"/></g>
<g><path style="opacity:0.694" fill="#032312" d="M 61.5,10.5 C 61.3893,11.1174 61.056,11.6174 60.5,12C 55.4164,12.1728 50.4164,12.8394 45.5,14C 48.0318,14.6189 50.3651,15.6189 52.5,17C 50.6161,17.2163 48.9494,17.883 47.5,19C 49.6175,19.2602 51.2842,20.2602 52.5,22C 48.7125,22.1596 45.0458,22.8263 41.5,24C 43.8098,24.4966 46.1432,24.6633 48.5,24.5C 48.5674,25.9587 48.2341,27.2921 47.5,28.5C 44.8127,28.3359 42.146,28.5026 39.5,29C 42.2889,29.2414 44.9556,29.908 47.5,31C 43.7945,32.9851 39.7945,33.8184 35.5,33.5C 36.6002,32.4415 37.9336,31.6082 39.5,31C 37.038,29.7844 34.3713,29.1177 31.5,29C 35.8333,28 40.1667,27 44.5,26C 42.0995,25.8142 39.7662,25.3142 37.5,24.5C 41.0251,22.8969 44.0251,20.5636 46.5,17.5C 44.0797,15.7007 41.7464,14.0341 39.5,12.5C 46.6464,11.3841 53.9797,10.7174 61.5,10.5 Z"/></g>
<g><path style="opacity:1" fill="#10bb66" d="M 190.5,18.5 C 192.833,18.5 195.167,18.5 197.5,18.5C 198.16,22.3127 199.326,25.9793 201,29.5C 202.674,25.9793 203.84,22.3127 204.5,18.5C 206.833,18.5 209.167,18.5 211.5,18.5C 211.5,32.8333 211.5,47.1667 211.5,61.5C 209.5,61.5 207.5,61.5 205.5,61.5C 205.666,53.4931 205.5,45.4931 205,37.5C 203.872,39.3453 203.372,41.3453 203.5,43.5C 201.833,43.5 200.167,43.5 198.5,43.5C 198.628,41.3453 198.128,39.3453 197,37.5C 196.5,45.4931 196.334,53.4931 196.5,61.5C 194.5,61.5 192.5,61.5 190.5,61.5C 190.5,47.1667 190.5,32.8333 190.5,18.5 Z"/></g>
<g><path style="opacity:0.986" fill="#caf7e5" d="M 214.5,16.5 C 222.5,16.5 230.5,16.5 238.5,16.5C 238.5,31.8333 238.5,47.1667 238.5,62.5C 230.5,62.5 222.5,62.5 214.5,62.5C 214.5,47.1667 214.5,31.8333 214.5,16.5 Z M 224.5,27.5 C 226.167,27.5 227.833,27.5 229.5,27.5C 229.5,35.8333 229.5,44.1667 229.5,52.5C 227.833,52.5 226.167,52.5 224.5,52.5C 224.5,44.1667 224.5,35.8333 224.5,27.5 Z"/></g>
<g><path style="opacity:0.51" fill="#17905a" d="M 60.5,16.5 C 76.5035,16.3334 92.5035,16.5001 108.5,17C 109.337,18.0113 109.67,19.1779 109.5,20.5C 108.448,20.3505 107.448,20.5172 106.5,21C 109.816,22.2512 110.15,23.9179 107.5,26C 110.167,27.6667 110.167,29.3333 107.5,31C 109.527,32.3957 109.86,34.0624 108.5,36C 93.5039,36.0837 78.5039,35.917 63.5,35.5C 62.8826,35.6107 62.3826,35.944 62,36.5C 59.5203,34.8339 56.687,34.0006 53.5,34C 65.543,34.1497 77.2097,33.3163 88.5,31.5C 91.9,32.9862 95.2333,32.8195 98.5,31C 97.9056,30.5357 97.2389,30.369 96.5,30.5C 86.0079,29.6696 75.3412,29.1696 64.5,29C 76.6737,28.8307 88.6737,28.3307 100.5,27.5C 102.103,27.6882 103.437,27.1882 104.5,26C 91.8377,25.5001 79.1711,25.3334 66.5,25.5C 65.5266,25.0133 64.5266,24.5133 63.5,24C 70.0932,23.9813 76.4265,23.148 82.5,21.5C 90.1739,21.6664 97.8406,21.4997 105.5,21C 91.1223,20.8001 76.7889,20.3001 62.5,19.5C 61.8485,20.0906 61.1818,20.7573 60.5,21.5C 59.0878,20.1936 57.4211,19.3603 55.5,19C 57.4913,18.6264 59.158,17.793 60.5,16.5 Z M 62.5,19.5 C 76.7889,20.3001 91.1223,20.8001 105.5,21C 97.8406,21.4997 90.1739,21.6664 82.5,21.5C 76.1667,21.5 69.8333,21.5 63.5,21.5C 63.1667,20.8333 62.8333,20.1667 62.5,19.5 Z"/></g>
<g><path style="opacity:1" fill="#42c484" d="M 215.5,18.5 C 222.833,18.5 230.167,18.5 237.5,18.5C 237.5,32.8333 237.5,47.1667 237.5,61.5C 230.245,61.8132 223.079,61.4799 216,60.5C 215.5,46.504 215.333,32.504 215.5,18.5 Z M 224.5,27.5 C 224.5,35.8333 224.5,44.1667 224.5,52.5C 226.167,52.5 227.833,52.5 229.5,52.5C 229.5,44.1667 229.5,35.8333 229.5,27.5C 227.833,27.5 226.167,27.5 224.5,27.5 Z"/></g>
<g><path style="opacity:0.247" fill="#0a7748" d="M 327.5,26.5 C 340.167,26.5 352.833,26.5 365.5,26.5C 365.611,27.1174 365.944,27.6174 366.5,28C 369.5,28.3333 372.5,28.6667 375.5,29C 372.118,29.1764 368.785,29.6764 365.5,30.5C 366.498,33.0278 367.331,33.0278 368,30.5C 368.833,31.3333 369.667,32.1667 370.5,33C 373.167,33.3333 375.833,33.6667 378.5,34C 376.481,34.4497 374.648,35.283 373,36.5C 372.329,35.7476 371.496,35.4142 370.5,35.5C 366.833,35.5 363.167,35.5 359.5,35.5C 360.609,34.71 361.942,34.21 363.5,34C 357.167,33.6667 350.833,33.3333 344.5,33C 341.956,30.9074 338.956,29.9074 335.5,30C 340.5,29.6667 345.5,29.3333 350.5,29C 342.633,28.6432 334.967,27.8098 327.5,26.5 Z"/></g>
<g><path style="opacity:0.084" fill="#053b20" d="M 47.5,28.5 C 49.2922,29.3091 51.2922,29.8091 53.5,30C 54.1667,30.6667 54.8333,31.3333 55.5,32C 43.422,34.7298 43.7553,36.0631 56.5,36C 57.756,36.4169 58.4226,37.2502 58.5,38.5C 54.0293,37.9106 50.0293,38.5772 46.5,40.5C 43.6035,40.1253 40.9368,40.6253 38.5,42C 39.1667,42.3333 39.8333,42.6667 40.5,43C 37.3718,43.8412 34.3718,44.6746 31.5,45.5C 27.8183,45.6653 24.1516,45.4986 20.5,45C 25.252,44.2753 29.9187,43.2753 34.5,42C 26.2427,40.76 17.9094,40.0933 9.5,40C 16.5645,39.4087 23.5645,38.4087 30.5,37C 26.5,36 22.5,35 18.5,34C 24.1569,33.5006 29.8236,33.3339 35.5,33.5C 39.7945,33.8184 43.7945,32.9851 47.5,31C 44.9556,29.908 42.2889,29.2414 39.5,29C 42.146,28.5026 44.8127,28.3359 47.5,28.5 Z"/></g>
<g><path style="opacity:0.004" fill="#000000" d="M 284.5,37.5 C 285.833,38.1667 285.833,38.1667 284.5,37.5 Z"/></g>
<g><path style="opacity:0.443" fill="#011208" d="M 39.5,12.5 C 41.7464,14.0341 44.0797,15.7007 46.5,17.5C 44.0251,20.5636 41.0251,22.8969 37.5,24.5C 39.7662,25.3142 42.0995,25.8142 44.5,26C 40.1667,27 35.8333,28 31.5,29C 34.3713,29.1177 37.038,29.7844 39.5,31C 37.9336,31.6082 36.6002,32.4415 35.5,33.5C 29.8236,33.3339 24.1569,33.5006 18.5,34C 22.5,35 26.5,36 30.5,37C 23.5645,38.4087 16.5645,39.4087 9.5,40C 17.9094,40.0933 26.2427,40.76 34.5,42C 29.9187,43.2753 25.252,44.2753 20.5,45C 24.1516,45.4986 27.8183,45.6653 31.5,45.5C 34.8333,45.5 38.1667,45.5 41.5,45.5C 42.0076,47.2327 42.841,47.566 44,46.5C 44.4922,47.549 44.3256,48.549 43.5,49.5C 46.0774,52.1916 45.4107,54.025 41.5,55C 44.8818,55.1764 48.2152,55.6764 51.5,56.5C 51.7093,57.086 52.0426,57.586 52.5,58C 51.0953,59.2692 49.4286,59.7692 47.5,59.5C 47.5,60.5 47.5,61.5 47.5,62.5C 40.0491,59.766 34.0491,55.0993 29.5,48.5C 25.1038,47.9282 20.7705,47.0948 16.5,46C 15.6634,44.9887 15.33,43.8221 15.5,42.5C 10.6774,42.1234 6.01077,41.2901 1.5,40C 5.25742,38.1899 8.92408,36.1899 12.5,34C 17.3225,33.1698 21.9892,31.8365 26.5,30C 30.6667,26.5 34.8333,23 39,19.5C 38.5885,17.0048 38.7551,14.6715 39.5,12.5 Z"/></g>
<g><path style="opacity:0.478" fill="#149058" d="M 84.5,37.5 C 92.5069,37.3336 100.507,37.5003 108.5,38C 109.833,39 109.833,40 108.5,41C 100.173,41.4997 91.84,41.6664 83.5,41.5C 71.3446,40.5048 59.0113,40.1714 46.5,40.5C 50.0293,38.5772 54.0293,37.9106 58.5,38.5C 67.3494,38.8264 76.0161,38.493 84.5,37.5 Z"/></g>
<g><path style="opacity:0.531" fill="#109456" d="M 319.5,20.5 C 320.75,20.5774 321.583,21.244 322,22.5C 322.399,22.2716 322.565,21.9382 322.5,21.5C 327.833,21.5 333.167,21.5 338.5,21.5C 347.955,23.0282 357.621,23.8616 367.5,24C 365.942,24.21 364.609,24.71 363.5,25.5C 348.798,25.1505 336.798,25.4838 327.5,26.5C 334.967,27.8098 342.633,28.6432 350.5,29C 345.5,29.3333 340.5,29.6667 335.5,30C 338.956,29.9074 341.956,30.9074 344.5,33C 350.833,33.3333 357.167,33.6667 363.5,34C 361.942,34.21 360.609,34.71 359.5,35.5C 347.167,35.9275 334.833,36.4275 322.5,37C 336.163,37.4999 349.829,37.6666 363.5,37.5C 372.489,38.1855 381.489,39.0188 390.5,40C 385.692,39.9277 381.192,40.761 377,42.5C 376.617,41.944 376.117,41.6107 375.5,41.5C 356.5,41.5 337.5,41.5 318.5,41.5C 319.163,34.5043 319.496,27.5043 319.5,20.5 Z"/></g>
<g><path style="opacity:0.065" fill="#064327" d="M 343.5,11.5 C 351.984,10.507 360.651,10.1736 369.5,10.5C 369.611,11.1174 369.944,11.6174 370.5,12C 374.147,12.7745 377.814,13.4412 381.5,14C 379.5,14.3333 377.5,14.6667 375.5,15C 376.696,15.6543 376.696,16.1543 375.5,16.5C 373.38,15.1285 372.38,15.7952 372.5,18.5C 374.604,18.2011 376.604,18.5344 378.5,19.5C 378.023,20.4776 377.357,21.3109 376.5,22C 379.711,23.1532 383.044,23.8198 386.5,24C 385.552,24.4828 384.552,24.6495 383.5,24.5C 383.281,25.675 383.614,26.675 384.5,27.5C 386.336,28.0276 388.003,28.6942 389.5,29.5C 389.414,30.4959 389.748,31.3292 390.5,32C 396.175,32.5935 401.842,33.2602 407.5,34C 405.269,35.147 402.935,36.147 400.5,37C 405.277,38.9803 410.277,39.9803 415.5,40C 408.124,40.2525 400.791,40.9192 393.5,42C 393.167,42.3333 392.833,42.6667 392.5,43C 394.788,43.8221 397.122,44.4888 399.5,45C 395.5,45.3333 391.5,45.6667 387.5,46C 387.335,47.1169 387.002,48.2836 386.5,49.5C 384.098,50.5754 381.764,51.7421 379.5,53C 380.833,53.6667 382.167,54.3333 383.5,55C 379.576,55.2597 375.909,56.2597 372.5,58C 376.586,58.5942 380.252,59.7609 383.5,61.5C 379.353,62.3247 375.019,62.8247 370.5,63C 368.275,63.5611 366.275,64.5611 364.5,66C 354.506,66.4998 344.506,66.6665 334.5,66.5C 336.631,65.6862 338.964,65.1862 341.5,65C 340.263,64.7679 339.263,64.2679 338.5,63.5C 344.271,64.1128 349.604,63.4461 354.5,61.5C 355.552,61.3505 356.552,61.5172 357.5,62C 356.304,62.6543 356.304,63.1543 357.5,63.5C 359.554,61.8062 361.888,60.6395 364.5,60C 362.285,59.8295 360.285,59.1628 358.5,58C 359.449,57.3828 360.282,57.5494 361,58.5C 361.483,57.552 361.649,56.552 361.5,55.5C 363.5,55.5 365.5,55.5 367.5,55.5C 367.725,51.9438 366.892,51.6105 365,54.5C 364.098,54.2568 363.265,53.9234 362.5,53.5C 363.5,52.8333 364.5,52.1667 365.5,51.5C 366.822,51.33 367.989,51.6634 369,52.5C 370.098,51.0325 371.598,50.1992 373.5,50C 369.5,49.6667 365.5,49.3333 361.5,49C 365.449,48.1932 365.449,47.6932 361.5,47.5C 361.5,47.1667 361.5,46.8333 361.5,46.5C 364.119,46.2317 366.619,46.565 369,47.5C 373.983,45.8722 379.15,45.0389 384.5,45C 381.5,43.9261 378.5,43.0928 375.5,42.5C 375.5,42.1667 375.5,41.8333 375.5,41.5C 376.117,41.6107 376.617,41.944 377,42.5C 381.192,40.761 385.692,39.9277 390.5,40C 381.489,39.0188 372.489,38.1855 363.5,37.5C 365.833,36.8333 368.167,36.1667 370.5,35.5C 371.496,35.4142 372.329,35.7476 373,36.5C 374.648,35.283 376.481,34.4497 378.5,34C 375.833,33.6667 373.167,33.3333 370.5,33C 369.667,32.1667 368.833,31.3333 368,30.5C 367.331,33.0278 366.498,33.0278 365.5,30.5C 368.785,29.6764 372.118,29.1764 375.5,29C 372.5,28.6667 369.5,28.3333 366.5,28C 365.944,27.6174 365.611,27.1174 365.5,26.5C 366.067,25.5798 365.401,25.2465 363.5,25.5C 364.609,24.71 365.942,24.21 367.5,24C 357.621,23.8616 347.955,23.0282 338.5,21.5C 346.84,21.6664 355.173,21.4997 363.5,21C 364.416,20.7216 365.082,20.2216 365.5,19.5C 367.5,19.5 368.5,18.5 368.5,16.5C 363.668,15.6004 358.668,14.9338 353.5,14.5C 350.712,12.0237 347.378,11.0237 343.5,11.5 Z"/></g>
<g><path style="opacity:0.004" fill="#000000" d="M 267.5,43.5 C 268.833,44.1667 268.833,44.1667 267.5,43.5 Z"/></g>
<g><path style="opacity:0.845" fill="#249d6a" d="M 71.5,46.5 C 69.7078,45.6909 67.7078,45.1909 65.5,45C 73.2984,43.6927 80.9651,43.1927 88.5,43.5C 94.7141,43.7717 100.881,43.4383 107,42.5C 108.869,43.3687 109.369,44.5354 108.5,46C 96.1712,46.4999 83.8378,46.6665 71.5,46.5 Z"/></g>
<g><path style="opacity:0.227" fill="#1d7b51" d="M 326.5,42.5 C 324.631,43.1646 322.631,43.8313 320.5,44.5C 332.486,45.6659 344.486,45.8326 356.5,45C 346.699,44.0077 337.032,43.1743 327.5,42.5C 343.5,42.5 359.5,42.5 375.5,42.5C 378.5,43.0928 381.5,43.9261 384.5,45C 379.15,45.0389 373.983,45.8722 369,47.5C 366.619,46.565 364.119,46.2317 361.5,46.5C 347.496,46.6666 333.496,46.4999 319.5,46C 318.167,45 318.167,44 319.5,43C 321.81,42.5034 324.143,42.3367 326.5,42.5 Z"/></g>
<g><path style="opacity:0.978" fill="#139f60" d="M 326.5,42.5 C 326.833,42.5 327.167,42.5 327.5,42.5C 337.032,43.1743 346.699,44.0077 356.5,45C 344.486,45.8326 332.486,45.6659 320.5,44.5C 322.631,43.8313 324.631,43.1646 326.5,42.5 Z"/></g>
<g><path style="opacity:0.399" fill="#01140a" d="M 384.5,11.5 C 386.5,11.5 388.5,11.5 390.5,11.5C 389.08,14.2613 388.413,17.2613 388.5,20.5C 390.564,20.687 392.564,21.187 394.5,22C 397.5,25 400.5,28 403.5,31C 411.617,32.7299 419.284,35.5633 426.5,39.5C 422.701,41.0927 418.701,41.926 414.5,42C 412.947,43.0968 411.614,44.4301 410.5,46C 406.071,46.6813 401.737,47.6813 397.5,49C 394.161,53.205 390.495,57.0383 386.5,60.5C 385.583,61.1272 384.583,61.4606 383.5,61.5C 380.252,59.7609 376.586,58.5942 372.5,58C 375.909,56.2597 379.576,55.2597 383.5,55C 382.167,54.3333 380.833,53.6667 379.5,53C 381.764,51.7421 384.098,50.5754 386.5,49.5C 387.002,48.2836 387.335,47.1169 387.5,46C 391.5,45.6667 395.5,45.3333 399.5,45C 397.122,44.4888 394.788,43.8221 392.5,43C 392.833,42.6667 393.167,42.3333 393.5,42C 400.791,40.9192 408.124,40.2525 415.5,40C 410.277,39.9803 405.277,38.9803 400.5,37C 402.935,36.147 405.269,35.147 407.5,34C 401.842,33.2602 396.175,32.5935 390.5,32C 389.748,31.3292 389.414,30.4959 389.5,29.5C 391.527,29.6621 393.527,29.4955 395.5,29C 392.417,28.1045 389.417,27.1045 386.5,26C 388.044,25.7104 389.377,25.0437 390.5,24C 387.5,23.1667 384.5,22.3333 381.5,21.5C 382.262,21.0894 383.262,20.9227 384.5,21C 380.375,17.5482 381.042,15.2148 386.5,14C 384.065,13.9252 383.398,13.0919 384.5,11.5 Z"/></g>
<g><path style="opacity:0.106" fill="#043a22" d="M 41.5,45.5 C 45.1817,45.3347 48.8484,45.5014 52.5,46C 53.7112,46.8928 53.7112,47.7261 52.5,48.5C 50.8849,49.154 49.2182,49.654 47.5,50C 52.7465,50.1323 57.7465,51.1323 62.5,53C 61.2161,53.6838 60.0495,53.5171 59,52.5C 58.5357,53.0944 58.369,53.7611 58.5,54.5C 64.6405,55.1559 71.3072,56.1559 78.5,57.5C 77.8333,57.5 77.5,57.8333 77.5,58.5C 72.8821,59.2188 68.2154,59.7188 63.5,60C 66.0432,60.1397 68.3766,60.8063 70.5,62C 68.4049,62.5556 68.2382,63.0556 70,63.5C 70.7648,63.4301 71.2648,63.0967 71.5,62.5C 73.2161,62.6287 74.8828,62.962 76.5,63.5C 74.1513,64.3806 72.4847,65.3806 71.5,66.5C 71.2648,67.0967 70.7648,67.4301 70,67.5C 64.4615,67.0969 59.2948,65.5969 54.5,63C 52.1902,62.5034 49.8568,62.3367 47.5,62.5C 47.5,61.5 47.5,60.5 47.5,59.5C 49.4286,59.7692 51.0953,59.2692 52.5,58C 52.0426,57.586 51.7093,57.086 51.5,56.5C 48.2152,55.6764 44.8818,55.1764 41.5,55C 45.4107,54.025 46.0774,52.1916 43.5,49.5C 44.3256,48.549 44.4922,47.549 44,46.5C 42.841,47.566 42.0076,47.2327 41.5,45.5 Z"/></g>
<g><path style="opacity:0.004" fill="#fefffe" d="M 200.5,47.5 C 201.525,47.8966 201.692,48.5632 201,49.5C 200.536,48.9056 200.369,48.2389 200.5,47.5 Z"/></g>
<g><path style="opacity:0.741" fill="#085e34" d="M 46.5,40.5 C 59.0113,40.1714 71.3446,40.5048 83.5,41.5C 78.8215,41.3342 74.1548,41.5008 69.5,42C 76.0133,42.1721 82.3466,42.6721 88.5,43.5C 80.9651,43.1927 73.2984,43.6927 65.5,45C 67.7078,45.1909 69.7078,45.6909 71.5,46.5C 73.3954,47.6296 78.062,47.9629 85.5,47.5C 79.401,49.0154 73.0677,49.8488 66.5,50C 71.6835,50.1739 76.6835,50.6739 81.5,51.5C 75.8236,51.3339 70.1569,51.5006 64.5,52C 69.3722,53.3885 74.3722,53.8885 79.5,53.5C 72.6866,54.4912 65.6866,54.8245 58.5,54.5C 58.369,53.7611 58.5357,53.0944 59,52.5C 60.0495,53.5171 61.2161,53.6838 62.5,53C 57.7465,51.1323 52.7465,50.1323 47.5,50C 49.2182,49.654 50.8849,49.154 52.5,48.5C 53.7112,47.7261 53.7112,46.8928 52.5,46C 48.8484,45.5014 45.1817,45.3347 41.5,45.5C 38.1667,45.5 34.8333,45.5 31.5,45.5C 34.3718,44.6746 37.3718,43.8412 40.5,43C 39.8333,42.6667 39.1667,42.3333 38.5,42C 40.9368,40.6253 43.6035,40.1253 46.5,40.5 Z"/></g>
<g><path style="opacity:1" fill="#0f9f62" d="M 341.5,47.5 C 347.002,48.457 352.669,49.2903 358.5,50C 350.989,50.1712 343.655,50.6712 336.5,51.5C 330.5,51.5 324.5,51.5 318.5,51.5C 318.5,50.1667 318.5,48.8333 318.5,47.5C 326.167,47.5 333.833,47.5 341.5,47.5 Z"/></g>
<g><path style="opacity:0.004" fill="#000000" d="M 15.5,49.5 C 16.8333,50.1667 16.8333,50.1667 15.5,49.5 Z"/></g>
<g><path style="opacity:1" fill="#179d66" d="M 85.5,47.5 C 93.1739,47.3336 100.841,47.5003 108.5,48C 109.337,49.0113 109.67,50.1779 109.5,51.5C 100.167,51.5 90.8333,51.5 81.5,51.5C 76.6835,50.6739 71.6835,50.1739 66.5,50C 73.0677,49.8488 79.401,49.0154 85.5,47.5 Z"/></g>
<g><path style="opacity:0.004" fill="#000000" d="M 148.5,49.5 C 149.833,50.1667 149.833,50.1667 148.5,49.5 Z"/></g>
<g><path style="opacity:0.239" fill="#08774a" d="M 341.5,47.5 C 348.167,47.5 354.833,47.5 361.5,47.5C 365.449,47.6932 365.449,48.1932 361.5,49C 365.5,49.3333 369.5,49.6667 373.5,50C 371.598,50.1992 370.098,51.0325 369,52.5C 367.989,51.6634 366.822,51.33 365.5,51.5C 355.833,51.5 346.167,51.5 336.5,51.5C 343.655,50.6712 350.989,50.1712 358.5,50C 352.669,49.2903 347.002,48.457 341.5,47.5 Z"/></g>
<g><path style="opacity:1" fill="#1c9d65" d="M 79.5,53.5 C 89.5222,53.1681 99.5222,53.5015 109.5,54.5C 108.833,55.5 108.167,56.5 107.5,57.5C 108.833,58.6199 109.333,59.9532 109,61.5C 96.4111,61.4177 83.9111,61.751 71.5,62.5C 71.2648,63.0967 70.7648,63.4301 70,63.5C 68.2382,63.0556 68.4049,62.5556 70.5,62C 68.3766,60.8063 66.0432,60.1397 63.5,60C 68.2154,59.7188 72.8821,59.2188 77.5,58.5C 86.8393,58.6665 96.1726,58.4998 105.5,58C 104.391,57.3623 103.225,56.8623 102,56.5C 94.1822,56.3174 86.3488,56.6507 78.5,57.5C 71.3072,56.1559 64.6405,55.1559 58.5,54.5C 65.6866,54.8245 72.6866,54.4912 79.5,53.5 Z"/></g>
<g><path style="opacity:1" fill="#15a666" d="M 342.5,53.5 C 344.288,53.2148 345.955,53.5481 347.5,54.5C 343.353,55.167 339.353,55.8337 335.5,56.5C 334.127,56.3433 332.793,56.51 331.5,57C 334.482,57.498 337.482,57.6646 340.5,57.5C 342.717,58.3686 345.05,58.702 347.5,58.5C 351.163,58.9518 354.83,59.4518 358.5,60C 356.618,60.1981 354.952,60.6981 353.5,61.5C 342.155,61.747 330.822,61.9136 319.5,62C 319.5,59 319.5,56 319.5,53C 327.347,52.2638 335.014,52.4305 342.5,53.5 Z"/></g>
<g><path style="opacity:1" fill="#0d794d" d="M 342.5,53.5 C 349.058,53.3504 355.724,53.3504 362.5,53.5C 363.265,53.9234 364.098,54.2568 365,54.5C 366.892,51.6105 367.725,51.9438 367.5,55.5C 365.5,55.5 363.5,55.5 361.5,55.5C 361.649,56.552 361.483,57.552 361,58.5C 360.282,57.5494 359.449,57.3828 358.5,58C 360.285,59.1628 362.285,59.8295 364.5,60C 361.888,60.6395 359.554,61.8062 357.5,63.5C 356.304,63.1543 356.304,62.6543 357.5,62C 356.552,61.5172 355.552,61.3505 354.5,61.5C 354.167,61.5 353.833,61.5 353.5,61.5C 354.952,60.6981 356.618,60.1981 358.5,60C 354.83,59.4518 351.163,58.9518 347.5,58.5C 345.485,57.0762 343.152,56.4095 340.5,56.5C 338.833,56.5 337.167,56.5 335.5,56.5C 339.353,55.8337 343.353,55.167 347.5,54.5C 345.955,53.5481 344.288,53.2148 342.5,53.5 Z"/></g>
<g><path style="opacity:1" fill="#11bc65" d="M 216.5,19.5 C 223.167,19.5 229.833,19.5 236.5,19.5C 236.5,32.8333 236.5,46.1667 236.5,59.5C 230.167,59.5 223.833,59.5 217.5,59.5C 216.723,46.1815 216.389,32.8481 216.5,19.5 Z M 224.5,27.5 C 224.5,35.8333 224.5,44.1667 224.5,52.5C 226.167,52.5 227.833,52.5 229.5,52.5C 229.5,44.1667 229.5,35.8333 229.5,27.5C 227.833,27.5 226.167,27.5 224.5,27.5 Z"/></g>
<g><path style="opacity:0.903" fill="#b4f9e1" d="M 222.5,25.5 C 225.167,25.5 227.833,25.5 230.5,25.5C 230.5,35.1667 230.5,44.8333 230.5,54.5C 227.833,54.5 225.167,54.5 222.5,54.5C 222.5,44.8333 222.5,35.1667 222.5,25.5 Z M 224.5,27.5 C 224.5,35.8333 224.5,44.1667 224.5,52.5C 226.167,52.5 227.833,52.5 229.5,52.5C 229.5,44.1667 229.5,35.8333 229.5,27.5C 227.833,27.5 226.167,27.5 224.5,27.5 Z"/></g>
<g><path style="opacity:0.004" fill="#00ff00" d="M 340.5,57.5 C 340.5,57.1667 340.5,56.8333 340.5,56.5C 343.152,56.4095 345.485,57.0762 347.5,58.5C 345.05,58.702 342.717,58.3686 340.5,57.5 Z"/></g>
<g><path style="opacity:0.004" fill="#000000" d="M 397.5,58.5 C 398.833,59.1667 398.833,59.1667 397.5,58.5 Z"/></g>
<g><path style="opacity:0.004" fill="#000000" d="M 160.5,63.5 C 161.833,64.1667 161.833,64.1667 160.5,63.5 Z"/></g>
<g><path style="opacity:0.004" fill="#000000" d="M 426.5,63.5 C 427.833,64.1667 427.833,64.1667 426.5,63.5 Z"/></g>
<g><path style="opacity:0.004" fill="#000000" d="M -0.5,65.5 C 0.833333,66.1667 0.833333,66.1667 -0.5,65.5 Z"/></g>
<g><path style="opacity:0.004" fill="#000000" d="M 4.5,65.5 C 5.83333,66.1667 5.83333,66.1667 4.5,65.5 Z"/></g>
<g><path style="opacity:0.786" fill="#1a8457" d="M 76.5,63.5 C 87.1719,63.3335 97.8385,63.5002 108.5,64C 109.833,65 109.833,66 108.5,67C 96.1847,66.748 83.8513,66.5813 71.5,66.5C 72.4847,65.3806 74.1513,64.3806 76.5,63.5 Z"/></g>
<g><path style="opacity:0.004" fill="#000000" d="M 114.5,65.5 C 115.833,66.1667 115.833,66.1667 114.5,65.5 Z"/></g>
<g><path style="opacity:0.915" fill="#1ca267" d="M 338.5,63.5 C 339.263,64.2679 340.263,64.7679 341.5,65C 338.964,65.1862 336.631,65.6862 334.5,66.5C 329.195,67.1942 323.862,67.5276 318.5,67.5C 318.5,66.1667 318.5,64.8333 318.5,63.5C 325.167,63.5 331.833,63.5 338.5,63.5 Z"/></g>
<g><path style="opacity:0.004" fill="#000000" d="M 268.5,66.5 C 269.833,67.1667 269.833,67.1667 268.5,66.5 Z"/></g>
<g><path style="opacity:0.004" fill="#000000" d="M 265.5,68.5 C 266.833,69.1667 266.833,69.1667 265.5,68.5 Z"/></g>
<g><path style="opacity:0.004" fill="#000000" d="M 252.5,69.5 C 253.833,70.1667 253.833,70.1667 252.5,69.5 Z"/></g>
<g><path style="opacity:0.004" fill="#000000" d="M 132.5,70.5 C 133.833,71.1667 133.833,71.1667 132.5,70.5 Z"/></g>
<g><path style="opacity:0.004" fill="#000000" d="M 59.5,72.5 C 60.8333,73.1667 60.8333,73.1667 59.5,72.5 Z"/></g>
<g><path style="opacity:0.004" fill="#000000" d="M 272.5,72.5 C 273.833,73.1667 273.833,73.1667 272.5,72.5 Z"/></g>
<g><path style="opacity:0.004" fill="#000000" d="M 143.5,73.5 C 144.833,74.1667 144.833,74.1667 143.5,73.5 Z"/></g>
<g><path style="opacity:0.004" fill="#000000" d="M 350.5,73.5 C 351.833,74.1667 351.833,74.1667 350.5,73.5 Z"/></g>
<g><path style="opacity:0.424" fill="#168c56" d="M 230.5,71.5 C 235.495,68.8135 239.495,69.9802 242.5,75C 239.924,75.6058 237.59,75.1058 235.5,73.5C 231.232,74.8948 230.566,77.0614 233.5,80C 236.14,80.839 238.473,80.339 240.5,78.5C 241.754,80.2592 241.421,81.7592 239.5,83C 234.41,85.1926 230.91,83.6926 229,78.5C 228.45,83.2263 226.45,84.2263 223,81.5C 219.42,85.3254 215.753,85.3254 212,81.5C 208.974,83.9788 205.807,84.4788 202.5,83C 200.688,79.078 200.021,74.9113 200.5,70.5C 201.5,70.5 202.5,70.5 203.5,70.5C 203.833,73.8333 204.167,77.1667 204.5,80.5C 205.822,80.67 206.989,80.3366 208,79.5C 208.179,76.4465 208.679,73.4465 209.5,70.5C 210.814,71.3128 211.981,72.3128 213,73.5C 215.859,68.661 219.192,68.3277 223,72.5C 224.221,71.7282 225.221,70.7282 226,69.5C 227.381,71.6349 228.381,73.9682 229,76.5C 229.608,74.8455 230.108,73.1789 230.5,71.5 Z M 212.5,75.5 C 215.284,77.2806 215.117,78.9472 212,80.5C 211.626,79.5838 211.126,78.7504 210.5,78C 211.381,77.2917 212.047,76.4584 212.5,75.5 Z M 222.5,74.5 C 224.739,76.0012 224.739,77.3345 222.5,78.5C 221.374,77.1916 221.374,75.8583 222.5,74.5 Z M 216.5,73.5 C 217.675,73.281 218.675,73.6143 219.5,74.5C 217.948,75.7979 216.948,75.4646 216.5,73.5 Z M 217.5,78.5 C 218.773,79.0768 218.773,79.7435 217.5,80.5C 216.537,80.0302 216.537,79.3635 217.5,78.5 Z"/></g>
<g><path style="opacity:0.004" fill="#000000" d="M 230.5,71.5 C 229.833,70.1667 229.833,70.1667 230.5,71.5 Z"/></g>
<g><path style="opacity:0.004" fill="#000000" d="M 343.5,76.5 C 344.833,77.1667 344.833,77.1667 343.5,76.5 Z"/></g>
<g><path style="opacity:0.004" fill="#000000" d="M 407.5,76.5 C 408.833,77.1667 408.833,77.1667 407.5,76.5 Z"/></g>
<g><path style="opacity:0.004" fill="#000000" d="M 135.5,77.5 C 136.833,78.1667 136.833,78.1667 135.5,77.5 Z"/></g>
<g><path style="opacity:0.976" fill="#1fa061" d="M 185.5,70.5 C 188.095,71.4262 190.095,73.0929 191.5,75.5C 192.941,74.1349 194.274,72.6349 195.5,71C 196.167,70.3333 196.833,70.3333 197.5,71C 197.681,75.0074 198.015,79.1741 198.5,83.5C 197.5,83.5 196.5,83.5 195.5,83.5C 195.662,81.4727 195.495,79.4727 195,77.5C 193.194,80.6841 191.194,81.0175 189,78.5C 187.731,79.9047 187.231,81.5714 187.5,83.5C 186.5,83.5 185.5,83.5 184.5,83.5C 184.756,81.2075 184.423,79.0408 183.5,77C 184.23,74.846 184.897,72.6794 185.5,70.5 Z"/></g>
<g><path style="opacity:0.004" fill="#000000" d="M 18.5,78.5 C 19.8333,79.1667 19.8333,79.1667 18.5,78.5 Z"/></g>
<g><path style="opacity:0.004" fill="#000000" d="M 349.5,78.5 C 350.833,79.1667 350.833,79.1667 349.5,78.5 Z"/></g>
<g><path style="opacity:0.004" fill="#000000" d="M 89.5,79.5 C 90.8333,80.1667 90.8333,80.1667 89.5,79.5 Z"/></g>
<g><path style="opacity:0.004" fill="#000000" d="M 17.5,80.5 C 18.8333,81.1667 18.8333,81.1667 17.5,80.5 Z"/></g>
<g><path style="opacity:0.004" fill="#000000" d="M 271.5,80.5 C 272.833,81.1667 272.833,81.1667 271.5,80.5 Z"/></g>
<g><path style="opacity:0.004" fill="#000000" d="M 247.5,82.5 C 248.833,83.1667 248.833,83.1667 247.5,82.5 Z"/></g>
<g><path style="opacity:0.004" fill="#000000" d="M 29.5,83.5 C 30.8333,84.1667 30.8333,84.1667 29.5,83.5 Z"/></g>
<g><path style="opacity:0.004" fill="#000000" d="M 400.5,83.5 C 401.833,84.1667 401.833,84.1667 400.5,83.5 Z"/></g>
<g><path style="opacity:0.004" fill="#000000" d="M 409.5,83.5 C 410.833,84.1667 410.833,84.1667 409.5,83.5 Z"/></g>
<g><path style="opacity:0.004" fill="#000000" d="M 96.5,84.5 C 97.8333,85.1667 97.8333,85.1667 96.5,84.5 Z"/></g>
<g><path style="opacity:0.004" fill="#000000" d="M 165.5,84.5 C 166.833,85.1667 166.833,85.1667 165.5,84.5 Z"/></g>
<g><path style="opacity:0.004" fill="#000000" d="M 224.5,84.5 C 225.833,85.1667 225.833,85.1667 224.5,84.5 Z"/></g>
<g><path style="opacity:0.004" fill="#000000" d="M 126.5,85.5 C 127.833,86.1667 127.833,86.1667 126.5,85.5 Z"/></g>
<g><path style="opacity:0.004" fill="#000000" d="M 153.5,86.5 C 154.833,87.1667 154.833,87.1667 153.5,86.5 Z"/></g>
<g><path style="opacity:0.004" fill="#000000" d="M 327.5,87.5 C 328.833,88.1667 328.833,88.1667 327.5,87.5 Z"/></g>
<g><path style="opacity:0.004" fill="#000000" d="M 40.5,88.5 C 41.8333,89.1667 41.8333,89.1667 40.5,88.5 Z"/></g>
<g><path style="opacity:0.004" fill="#000000" d="M 104.5,88.5 C 105.833,89.1667 105.833,89.1667 104.5,88.5 Z"/></g>
<g><path style="opacity:0.004" fill="#000000" d="M 364.5,88.5 C 365.833,89.1667 365.833,89.1667 364.5,88.5 Z"/></g>
<g><path style="opacity:0.004" fill="#000000" d="M 410.5,88.5 C 411.833,89.1667 411.833,89.1667 410.5,88.5 Z"/></g>
</svg>
